<?xml version="1.0" encoding="utf-8"?>
<!-- Generator: Adobe Illustrator 24.1.0, SVG Export Plug-In . SVG Version: 6.00 Build 0)  -->
<svg version="1.1" id="Layer_1" xmlns="http://www.w3.org/2000/svg" xmlns:xlink="http://www.w3.org/1999/xlink" x="0px" y="0px"
	 viewBox="0 0 352.65 270.18" style="enable-background:new 0 0 352.65 270.18;" xml:space="preserve">
<style type="text/css">
	.st0{fill:#00445B;}
	.st1{fill:#FFFFFF;}
	.st2{fill:#7497AD;}
	.st3{fill:#F6DEAC;}
	.st4{fill:#2C627B;}
	.st5{fill:#8DAABE;}
	.st6{fill:#4E7B94;}
	.st7{fill:#E6AC25;}
	.st8{fill-rule:evenodd;clip-rule:evenodd;fill:#E6AC25;}
	.st9{fill:#F3D697;}
	.st10{fill:none;}
	.st11{fill:#FBEFD7;}
</style>
<g>
	<g>
		<g>
			<path class="st0" d="M3.85,82.01l0.95-1.02c23.22-24.89,49.75-44.14,78.86-57.2c28.99-13.01,59.89-19.61,91.84-19.61l0.83,0
				C241.3,4.42,302.22,31.7,347.86,80.99l0.95,1.02L176.33,266.7L3.85,82.01z"/>
			<path class="st1" d="M175.5,5.68c0.28,0,0.55,0,0.83,0c65.97,0.24,126.14,28.49,170.43,76.33L176.33,264.5L5.9,82.01
				C52.38,32.17,111.88,5.68,175.5,5.68 M175.5,2.68L175.5,2.68c-32.17,0-63.27,6.64-92.45,19.74C53.75,35.57,27.05,54.93,3.7,79.96
				l-1.91,2.05l1.91,2.05l170.43,182.49l2.19,2.35l2.19-2.35L348.95,84.06l1.9-2.04l-1.9-2.05C303.03,30.37,241.73,2.92,176.34,2.68
				L175.5,2.68L175.5,2.68z"/>
		</g>
	</g>
</g>
<g>
	<g>
		<path class="st2" d="M155.38,101.52c0.82,1.17,2.83,2.58,2.83,2.58l1.09,0.59c0,0,2.19-1.75,3.56-2.33s4.11-1.46,4.11-1.46
			l3.29-1.75c0,0,0.55-1.17,0.82-2.04c0.03-0.09,0.06-0.18,0.09-0.28c-0.03,0-0.07,0-0.1,0c-0.82,0-2.16-0.65-2.98-0.65
			c-0.82,0-4.46,0.37-4.46,0.37s-1.09-0.29-3.01-0.29s-2.78,0.21-3.88,0.21s-2.21-0.79-3.58,0.08c-0.51,0.32-1.29,0.56-1.82,0.65
			c0.58,0.3,1.16,0.67,1.73,1.14C154.71,99.21,154.56,100.35,155.38,101.52z"/>
		<path class="st2" d="M283.11,111.39c-0.82-0.58-2.46-1.46-3.29-2.04c-0.82-0.58-1.64-1.17-2.46-1.17c-0.82,0-1.64,0.29-2.74,0.29
			c-1.1,0-1.37-0.58-2.46-1.46c-1.1-0.87-3.29-1.75-3.29-1.75s-1.09-0.29-2.47-0.87c-1.37-0.58-2.74-0.88-3.83-1.17
			s-2.74-0.58-3.83,0c-1.1,0.58-2.47,0.88-3.56,1.17s-1.92,0.87-3.01,0.87s-2.74,0.29-2.74,0.29s-1.37-1.17-2.74-1.17
			s-3.56,0.87-3.56,0.87l-1.92,0.59c0,0-1.92-0.29-3.56-0.88c-1.64-0.58-5.48-0.58-5.48-0.58s-2.47-0.29-3.29-0.29
			c-0.82,0-2.74-0.88-3.83-0.88s-4.11-0.29-4.11-0.29s-1.92,0-3.01,0c-1.1,0-2.73,0-3.83,0c-1.09,0-3.02-0.87-3.02-0.87
			c0.82,0.58,1.09,0.58,2.46,2.33c1.37,1.75,1.33,1.14,2.16,1.73c0.82,0.58,0.99-0.28,1.68,0.9c1.04,1.78,1.09,3.21,2.74,3.5
			c1.64,0.29,3.56,1.17,4.66,1.17s4.93,0,4.93,0l3.29,1.16l3.01,1.17c0,0,1.91-0.87,2.74-0.87c0.82,0,3.01,0.87,3.01,0.87l3.01-0.58
			c0,0,1.92,0,2.47,0.87s3.28,1.46,3.28,1.46l3.29,0.58c0,0,2.47,0,3.29,0.29s2.74,0.29,3.56,0.87s2.19,0.58,3.01,1.46
			c0.52,0.55,1.82,1.66,2.72,2.41c0.5-0.24,0.84-0.41,0.84-0.41l2.19-1.16c0,0,3.56-0.58,4.66-0.88c1.1-0.29,2.74-1.46,3.84-1.75
			c1.09-0.29,3.28-0.29,3.28-0.29s3.84-0.88,4.93-0.88c0.23,0,0.55,0,0.9-0.01C285.81,114.47,283.69,111.8,283.11,111.39z"/>
	</g>
	<path class="st3" d="M176.33,57.38c-22.06,0-43.52,4.13-63.63,12.01c-9.78,3.83-19.23,8.58-28.28,14.16
		c0.95,0.17,1.98,0.48,2.31,1.01c0.55,0.87,3.01,0.87,3.83,1.17c0.82,0.29,3.02,0.88,3.84,2.04c0.82,1.17,3.29,2.63,4.38,2.91
		c1.1,0.3,4.11-0.58,5.48-0.87s3.01-1.16,3.83-0.29c0.82,0.88,2.19,2.04,3.29,2.63c1.09,0.58,3.01,0.58,4.11,0.88
		c1.09,0.29,6.03,0.87,6.85,0.87s3.56-0.87,4.93-1.17c1.37-0.29,3.29-0.88,4.11-0.88c3.41-0.29,3.29,0,3.29,0s1.64,1.17,3.01,1.46
		c1.37,0.29,3.29,0.88,4.11,0.88s4.38,1.45,5.48,1.75c1.1,0.29,1.64,0.29,2.74,0.59c0.52,0.14,1.04,0.34,1.55,0.61
		c0.53-0.09,1.11-0.26,1.62-0.58c1.37-0.88,2.49-0.08,3.58-0.08c1.1,0,1.96-0.21,3.88-0.21s3.01,0.29,3.01,0.29s3.63-0.37,4.46-0.37
		c0.82,0,2.16,0.65,2.98,0.65c0.03,0,0.07,0,0.1,0c0.25-0.78,0.57-1.54,1.55-2.06c1.1-0.58,1.64-0.29,2.74-0.58
		c1.09-0.29,3.83-1.17,4.66-1.17c0.82,0,1.64,0,2.47,0c0.82,0,2.73-0.58,2.73-0.58s1.34-0.02,2.93,0.54
		c1.32,0.47,2.11,0.52,3.69,1.32c1.33,0.67,2.46,0,2.74,1.16c0.27,1.17,0.5,1.64,1.87,1.93s2.46,0.88,3.83,0.88s3.29,0.29,4.11,0
		s3.29,0,4.11,0.87s1.64,2.33,2.46,2.92c0,0,1.92,0.87,3.02,0.87c1.09,0,2.73,0,3.83,0s3.01,0,3.01,0s3.01,0.29,4.11,0.29
		c1.09,0,3.01,0.88,3.83,0.88s3.29,0.29,3.29,0.29s3.83,0,5.48,0.58c1.64,0.59,3.56,0.88,3.56,0.88l1.92-0.59
		c0,0,2.19-0.87,3.56-0.87s2.74,1.17,2.74,1.17s1.64-0.29,2.74-0.29c1.1,0,1.92-0.58,3.01-0.87c1.1-0.29,2.46-0.58,3.56-1.17
		c1.09-0.58,2.74-0.29,3.83,0s2.46,0.58,3.83,1.17c1.37,0.58,2.47,0.87,2.47,0.87s2.19,0.88,3.29,1.75c1.1,0.88,1.37,1.46,2.46,1.46
		c1.1,0,1.92-0.29,2.74-0.29c0.82,0,1.64,0.58,2.46,1.17c0.82,0.59,2.46,1.46,3.29,2.04c0.58,0.41,2.7,3.08,3.91,4.62
		c1.3-0.03,3.17-0.18,4.03-0.86c1.1-0.87,3.84-0.58,5.2-0.58c1.37,0,3.56-0.58,4.66-0.58c0.95,0,2.52-0.44,4.17-0.55
		C270.42,77.27,224.8,57.38,176.33,57.38z"/>
	<path class="st4" d="M208.61,99.15c-0.82-0.87-3.29-1.17-4.11-0.87c-0.82,0.29-2.74,0-4.11,0s-2.47-0.59-3.83-0.88
		c-1.37-0.29-1.6-0.76-1.87-1.93c-0.27-1.16-1.41-0.49-2.74-1.16c-1.58-0.8-2.37-0.85-3.69-1.32c-1.6-0.56-2.93-0.54-2.93-0.54
		s-1.91,0.58-2.73,0.58c-0.82,0-1.64,0-2.47,0c-0.82,0-3.56,0.87-4.66,1.17c-1.1,0.29-1.64,0-2.74,0.58
		c-0.98,0.52-1.3,1.28-1.55,2.06c-0.03,0.09-0.06,0.18-0.09,0.28c-0.27,0.87-0.82,2.04-0.82,2.04l-3.29,1.75
		c0,0-2.74,0.88-4.11,1.46s-3.56,2.33-3.56,2.33l-1.09-0.59c0,0-2.01-1.41-2.83-2.58s-0.47-2.37-2.1-3.25
		c-0.65-0.35-1.16-0.84-1.73-1.14c-0.52-0.27-1.04-0.48-1.55-0.61c-1.1-0.29-1.64-0.29-2.74-0.59c-1.09-0.29-4.66-1.75-5.48-1.75
		c-0.82,0-2.74-0.59-4.11-0.88c-1.37-0.29-3.01-1.46-3.01-1.46s0.12-0.29-3.29,0c-0.82,0.07-2.74,0.59-4.11,0.88
		c-1.37,0.29-4.11,1.17-4.93,1.17c-0.82,0-5.75-0.58-6.85-0.87s-3.02-0.29-4.11-0.88c-1.1-0.58-2.47-1.75-3.29-2.63
		c-0.82-0.87-2.47,0-3.83,0.29c-1.37,0.29-4.38,1.17-5.48,0.87c-1.09-0.29-3.56-1.75-4.38-2.91s-3.01-1.75-3.84-2.04
		c-0.82-0.29-3.29-0.29-3.83-1.17c-0.33-0.53-1.36-0.84-2.31-1.01c-3.72,2.29-7.38,4.72-10.96,7.3c-0.02,0.02-0.05,0.04-0.07,0.05
		c-0.32,0.23-0.63,0.46-0.94,0.69c-2.58,1.89-5.11,3.85-7.61,5.88c-2.25,1.84-4.46,3.75-6.65,5.7c0.49,0.71,0.95,1.49,1.6,2.18
		c1.1,1.17,1.37,0.87,2.74,1.46c1.37,0.59,3.01,2.63,3.84,2.92c0.82,0.29,2.47,1.46,3.83,2.33c1.37,0.88,1.1,2.33,1.92,3.21
		c0.82,0.87,1.37,3.5,1.65,4.37c0.27,0.87,1.3,1.86,1.57,3.02c0.27,1.17,0.58,1.67,1.13,2.83c0.55,1.17,0.46,2.52,1.56,3.4
		c1.1,0.87,1.49,3,2.31,3.58s3.01,2.33,3.01,2.33s1.91,0.87,2.74,1.46c0.82,0.58,1.64,1.17,3.02,1.46c0,0,1.1,0.5,1.87,1.13
		c0.52-0.06,0.96-0.06,0.96-0.06s3.01-0.29,3.84-0.29c0.82,0,1.92,0,2.74,0s3.29-0.29,3.29-0.29s2.47-0.87,3.56-1.17
		c1.1-0.29,1.92-1.17,1.92-1.17s1.64-0.29,2.46-0.58c0.82-0.29,1.64,0,2.46-0.29s4.93-0.29,8.76-0.58
		c3.84-0.29,22.19-0.58,26.02-0.87s26.84-1.17,40.26-1.46c13.42-0.29,35.33,0,35.33,0l0.3-0.05l2.44-1.44l2.74-1.17
		c0,0,3.01-0.29,4.38-0.58c1.37-0.29,3.84-0.88,5.2-1.17c1.37-0.29,3.01-0.58,3.83-1.17c0.82-0.58,4.38-0.29,4.38-0.29
		s3.56,0,4.38,0s3.01-0.58,3.83-1.17c0.82-0.58,2.19-0.58,4.11-0.87c1.92-0.29,3.83-0.88,4.66-1.17c0.57-0.2,2.44-1.1,3.54-1.63
		c-0.9-0.75-2.21-1.86-2.72-2.41c-0.82-0.88-2.19-0.88-3.01-1.46s-2.74-0.58-3.56-0.87s-3.29-0.29-3.29-0.29l-3.29-0.58
		c0,0-2.74-0.58-3.28-1.46c-0.55-0.87-2.47-0.87-2.47-0.87l-3.01,0.58c0,0-2.19-0.87-3.01-0.87s-2.74,0.87-2.74,0.87l-3.01-1.17
		l-3.29-1.16c0,0-3.83,0-4.93,0c-1.1,0-3.01-0.88-4.66-1.17c-1.64-0.29-1.7-1.72-2.74-3.5c-0.69-1.18-0.86-0.31-1.68-0.9
		c-0.83-0.58-0.79,0.02-2.16-1.73c-1.37-1.75-1.64-1.75-2.46-2.33C210.25,101.48,209.43,100.02,208.61,99.15z"/>
	<path class="st5" d="M249.69,137.89l-29.86-1.75c0,0,0.1-0.84,1.09-2.62c0.58-1.05,1.92-1.46,1.92-1.46l0.02-0.01l-0.3,0.05
		c0,0-21.91-0.29-35.33,0s-36.43,1.17-40.26,1.46c-3.84,0.29-22.19,0.58-26.02,0.87s-7.94,0.29-8.76,0.58
		c-0.82,0.29-1.64,0-2.46,0.29s-2.46,0.58-2.46,0.58s-0.82,0.87-1.92,1.17c-1.09,0.29-3.56,1.17-3.56,1.17s-2.47,0.29-3.29,0.29
		s-1.92,0-2.74,0s-3.84,0.29-3.84,0.29s-0.44,0-0.96,0.06c0.25,0.2,0.46,0.41,0.59,0.62c0.55,0.88,0.55,2.63-0.27,2.63
		s-2.47,0.88-2.47,0.88s0.55,1.46-0.27,1.75s-2.19,0.58-3.01,0.88c-0.82,0.29-3.01,0.58-4.11,1.17c-1.1,0.58-0.27,1.75-1.1,2.33
		c-0.29,0.21-0.62,0.32-0.97,0.41l20.23,21.67c3.19-3.3,6.53-6.38,10.01-9.22c1.49-1.21,3.01-2.39,4.55-3.52
		c0.19-0.14,0.38-0.27,0.57-0.41c0.01-0.01,0.03-0.02,0.04-0.03c7.35-5.3,15.22-9.6,23.49-12.84c12.04-4.72,24.88-7.19,38.09-7.19
		c28.86,0,56.04,11.79,76.75,33.22l28.49-30.51l-34.04-0.46C247.39,139.23,249.69,137.89,249.69,137.89z"/>
	<g>
		<path class="st6" d="M86.07,136.27c-0.82-0.59-2.74-1.46-2.74-1.46s-2.19-1.75-3.01-2.33s-1.22-2.71-2.31-3.58
			s-1.01-2.23-1.56-3.4c-0.55-1.17-0.86-1.66-1.13-2.83c-0.27-1.16-1.3-2.15-1.57-3.02c-0.28-0.88-0.82-3.5-1.65-4.37
			c-0.82-0.88-0.55-2.33-1.92-3.21c-1.37-0.87-3.01-2.04-3.83-2.33c-0.82-0.29-2.47-2.33-3.84-2.92c-1.37-0.58-1.64-0.29-2.74-1.46
			c-0.65-0.69-1.11-1.47-1.6-2.18c-3.98,3.56-7.86,7.29-11.6,11.24l32.77,35.09c0.35-0.09,0.68-0.2,0.97-0.41
			c0.82-0.58,0-1.75,1.1-2.33c1.1-0.59,3.29-0.88,4.11-1.17s2.19-0.58,3.01-0.88c0.82-0.29,0.27-1.75,0.27-1.75s1.64-0.88,2.47-0.88
			c0.82,0,0.82-1.75,0.27-2.63c-0.13-0.21-0.35-0.42-0.59-0.62c-0.77-0.62-1.87-1.13-1.87-1.13
			C87.72,137.44,86.9,136.86,86.07,136.27z"/>
		<path class="st6" d="M305.09,113.43c-1.65,0.12-3.22,0.55-4.17,0.55c-1.09,0-3.29,0.58-4.66,0.58s-4.11-0.29-5.2,0.58
			c-0.86,0.69-2.73,0.83-4.03,0.86c-0.35,0.01-0.66,0.01-0.9,0.01c-1.09,0-4.93,0.88-4.93,0.88s-2.19,0-3.28,0.29
			c-1.1,0.29-2.74,1.46-3.84,1.75s-4.66,0.88-4.66,0.88l-2.19,1.16c0,0-0.34,0.17-0.84,0.41c-1.11,0.54-2.98,1.43-3.54,1.63
			c-0.82,0.29-2.74,0.87-4.66,1.17c-1.92,0.29-3.29,0.29-4.11,0.87c-0.82,0.58-3.01,1.17-3.83,1.17c-0.82,0-4.38,0-4.38,0
			s-3.56-0.29-4.38,0.29c-0.82,0.59-2.46,0.88-3.83,1.17s-3.84,0.87-5.2,1.17c-1.37,0.29-4.38,0.58-4.38,0.58l-2.74,1.17l-2.44,1.44
			l-0.02,0.01c0,0-1.33,0.41-1.92,1.46c-0.99,1.79-1.09,2.62-1.09,2.62l29.86,1.75c0,0-2.31,1.33-2.16,2.33l34.04,0.46l24.5-26.23
			C305.75,114.1,305.41,113.77,305.09,113.43z"/>
	</g>
</g>
<g>
	<path class="st1" d="M51.11,70.3c-2.72,0.24-4.05,0.72-5.35,1.85c-1.4,1.23-1.61,3.16-0.48,4.45c0.96,1.1,2.15,1.25,4.74,0.52
		c3.89-1.07,4.48-1.19,5.81-1.26c1.84-0.12,3.74,0.75,5.07,2.27c2.86,3.26,2.26,7.97-1.39,11.18c-2.17,1.9-4.51,2.91-7.67,3.29
		l-2.35-3.76c3.04,0.12,5.53-0.62,7.25-2.13c1.69-1.48,1.9-3.51,0.52-5.08c-0.99-1.13-2.25-1.26-4.79-0.53
		c-3.35,0.95-3.86,1.1-5.09,1.18c-2.1,0.16-4.04-0.63-5.45-2.24c-2.76-3.15-2.26-7.57,1.2-10.61c1.86-1.63,4.01-2.52,6.65-2.75
		L51.11,70.3z"/>
	<path class="st1" d="M75.24,71.36l-6.73,4.67l1,4.27l-3.5,2.43l-4.03-19.2l4-2.77l16.7,10.42l-3.81,2.64L75.24,71.36z M67.1,70.26
		c0.3,1.48,0.4,1.82,0.61,3.17c1.06-0.83,1.31-1,2.63-1.91c1.32-0.92,1.51-1.04,2.66-1.75c-1.17-0.7-1.46-0.86-2.71-1.67l-0.86-0.59
		c-1.78-1.18-2.11-1.41-3.6-2.56l-0.09,0.06c0.56,1.8,0.68,2.3,1.14,4.27L67.1,70.26z"/>
	<path class="st1" d="M78.99,52.68l4.78,8.99c1.05,1.98,1.71,2.65,2.87,2.92c1.01,0.23,2.16,0,3.45-0.69
		c2.51-1.34,2.97-3.1,1.51-5.85l-5.01-9.42l3.8-2.02l5.13,9.65c2.48,4.66,1.22,8.04-4.1,10.87c-2.74,1.46-5.75,1.87-7.63,1.05
		c-1.29-0.59-2.46-1.92-3.6-4.06l-5.01-9.42L78.99,52.68z"/>
	<path class="st1" d="M95.6,44.34c1.88-0.96,3.21-1.56,4.82-2.18c3.98-1.54,7.26-1.87,9.72-1.02c2.44,0.83,4.38,2.73,5.35,5.24
		c1.12,2.9,0.76,5.92-1,8.33c-1.2,1.67-3.64,3.25-6.92,4.51c-1.78,0.69-3.5,1.23-5.52,1.81L95.6,44.34z M104.67,55.89
		c0.15,0.38,0.18,0.45,0.2,0.84c0.91-0.23,1.21-0.3,2.01-0.61c4.19-1.61,5.88-4.51,4.59-7.86c-0.81-2.1-2.8-3.62-5.05-3.83
		c-1.62-0.14-2.85,0.1-4.98,0.92l-0.14,0.05l-0.14,0.05l-0.56,0.22c0.06,0.05,0.08,0.09,0.09,0.13c0.17,0.22,0.19,0.29,0.33,0.64
		L104.67,55.89z"/>
	<path class="st1" d="M131.49,47.18l-7.94,2.05l-0.54,4.35l-4.13,1.06l2.88-19.41l4.71-1.21l12.05,15.56l-4.49,1.16L131.49,47.18z
		 M124.23,43.33c-0.23,1.49-0.26,1.85-0.53,3.19c1.28-0.41,1.58-0.48,3.13-0.89c1.56-0.4,1.78-0.46,3.1-0.72
		c-0.85-1.06-1.07-1.31-1.96-2.51l-0.61-0.85c-1.26-1.72-1.49-2.05-2.49-3.65l-0.11,0.02c-0.09,1.88-0.16,2.4-0.41,4.4L124.23,43.33
		z"/>
	<path class="st1" d="M161.61,28.12c-2.07-1.52-4.28-2.13-6.7-1.88c-4.73,0.48-7.65,4.31-7.15,9.33c0.55,5.44,4.58,8.87,9.8,8.34
		c1.6-0.16,2.91-0.63,4.02-1.5c-0.15-0.32-0.16-0.44-0.2-0.81l-0.36-3.57c-0.04-0.41-0.05-0.48,0.03-0.87
		c-0.36,0.15-0.44,0.16-0.85,0.2l-4.54,0.46l0.03-3.46l9.38-0.95l1.08,10.69c-2.63,2.22-5.35,3.32-9.03,3.7
		c-7.71,0.78-13.52-3.9-14.29-11.53c-0.74-7.37,4.26-13.33,11.82-14.09c3.57-0.36,6.7,0.41,9.34,2.37L161.61,28.12z"/>
	<path class="st1" d="M189.3,37.62c-0.12,5.61-4.32,9.46-10.19,9.33c-5.72-0.12-9.72-4.17-9.6-9.71c0.12-5.65,4.39-9.56,10.27-9.44
		C185.36,27.92,189.42,32.12,189.3,37.62z M173.94,36.77c-0.08,3.85,2.29,6.68,5.66,6.75c3.07,0.06,5.17-2.17,5.24-5.62
		c0.08-3.74-2.25-6.56-5.51-6.63C176.15,31.2,174.01,33.4,173.94,36.77z"/>
	<path class="st1" d="M196.54,43.38c-0.05,0.41-0.05,0.48-0.21,0.85c0.38-0.07,0.46-0.06,0.87-0.02l7.62,0.86l-0.87,3.33
		l-12.16-1.38l2.03-17.96l4.28,0.48L196.54,43.38z"/>
	<path class="st1" d="M221.9,36.84l-6.46-1.27c-0.4-0.08-0.48-0.1-0.82-0.28c0.04,0.39,0.02,0.46-0.06,0.87l-0.6,3.05
		c-0.08,0.4-0.1,0.48-0.28,0.82c0.39-0.04,0.46-0.03,0.87,0.05l5.65,1.12l-0.65,3.27l-5.65-1.12c-0.4-0.08-0.48-0.1-0.82-0.28
		c0.04,0.39,0.02,0.46-0.06,0.87l-1.17,5.95l-4.22-0.83l3.5-17.73l11.42,2.26L221.9,36.84z"/>
	<path class="st1" d="M231.64,35.99l-1.15,3.84c-0.58,1.94-0.69,2.33-1.4,4.03l0.1,0.07c2.22-1.41,2.78-1.71,5.3-3.1l5.13-2.8
		l4.17,1.99l-8.32,4.46c-0.11,0.09-0.33,0.18-0.64,0.32c-0.14,0.08-0.32,0.18-0.64,0.32c0.18,0.32,0.29,0.59,0.36,0.77
		c0.17,0.36,0.28,0.63,0.32,0.76l4.15,10.42l-5.09-1.52l-2.71-7.53c-0.25-0.74-0.32-0.88-0.46-1.58c-0.55,0.42-0.7,0.53-1.37,0.92
		l-1.35,0.73l-1.57,5.23l-4.12-1.23l5.17-17.32L231.64,35.99z"/>
	<path class="st1" d="M247.22,56.02c-0.16,0.38-0.18,0.45-0.43,0.75c0.39,0.04,0.46,0.07,0.84,0.22l7.1,2.91l-1.74,2.96l-11.32-4.64
		l6.85-16.72l3.98,1.63L247.22,56.02z"/>
	<path class="st1" d="M267.77,50L263,59c-1.05,1.98-1.24,2.9-0.82,4.02c0.38,0.96,1.21,1.79,2.5,2.47c2.51,1.33,4.23,0.72,5.69-2.02
		l5-9.43l3.8,2.02l-5.12,9.65c-2.47,4.66-5.97,5.52-11.3,2.7c-2.75-1.46-4.77-3.72-5.14-5.73c-0.23-1.4,0.21-3.11,1.35-5.26l5-9.42
		L267.77,50z"/>
	<path class="st1" d="M284.44,59.4c1.79,0.97,3.12,1.73,4.55,2.69c4.17,2.79,5.47,5.68,3.73,8.3c-1.02,1.52-2.4,1.91-5.1,1.36
		l-0.05,0.15c2.02,2.03,2.43,4.1,1.14,6.03c-1.97,2.96-5.21,2.82-10.1-0.45c-1.65-1.1-2.8-2-4.78-3.69l9.86-14.75L284.44,59.4z
		 M279.1,73.25c-0.23,0.34-0.27,0.4-0.57,0.65c0.75,0.63,1.32,1.06,1.81,1.39c2.3,1.54,3.9,1.57,4.92,0.05
		c0.93-1.4,0.36-3.04-1.5-4.29l-1.59-1.06c-0.34-0.23-0.4-0.27-0.65-0.57c-0.12,0.32-0.18,0.47-0.3,0.65l-0.08,0.13L279.1,73.25z
		 M285.6,63.32c-0.11,0.37-0.16,0.44-0.38,0.78l-1.89,2.83c-0.23,0.34-0.27,0.41-0.57,0.65c0.37,0.12,0.43,0.16,0.78,0.39l2.27,1.52
		c0.84,0.56,2.47,0.08,3.12-0.89c0.92-1.36,0.37-2.9-1.5-4.15c-0.37-0.25-0.69-0.46-1.3-0.82L285.6,63.32z"/>
	<path class="st1" d="M300.65,70.7c1.68,1.14,2.94,2.02,4.27,3.12c3.88,3.18,4.89,6.19,2.9,8.62c-1.16,1.42-2.58,1.66-5.21,0.86
		l-0.07,0.14c1.81,2.22,2.02,4.32,0.55,6.11c-2.26,2.75-5.46,2.29-10-1.43c-1.54-1.26-2.59-2.27-4.4-4.14l11.25-13.71L300.65,70.7z
		 M293.99,83.96c-0.26,0.32-0.31,0.37-0.63,0.59c0.68,0.7,1.21,1.19,1.67,1.56c2.14,1.76,3.73,1.94,4.89,0.53
		c1.07-1.3,0.66-2.99-1.07-4.41l-1.47-1.21c-0.32-0.26-0.38-0.31-0.59-0.63c-0.16,0.31-0.22,0.45-0.37,0.62l-0.1,0.12L293.99,83.96z
		 M301.42,74.72c-0.15,0.36-0.2,0.42-0.46,0.74l-2.16,2.63c-0.26,0.32-0.31,0.38-0.63,0.59c0.36,0.15,0.42,0.2,0.74,0.46l2.11,1.73
		c0.78,0.64,2.45,0.32,3.19-0.58c1.04-1.27,0.65-2.85-1.09-4.28c-0.35-0.28-0.64-0.52-1.21-0.94L301.42,74.72z"/>
</g>
<g>
	<path class="st7" d="M176.33,137.97c-13.2,0-26.05,2.47-38.09,7.19c-8.26,3.24-16.14,7.54-23.49,12.84
		c-0.02,0.01-0.03,0.02-0.04,0.03c-0.19,0.14-0.38,0.27-0.57,0.41c-1.54,1.13-3.06,2.31-4.55,3.52c-3.48,2.84-6.82,5.92-10.01,9.22
		l43.05,46.11l33.69,36.08l76.75-82.18C232.37,149.76,205.19,137.97,176.33,137.97z"/>
	<path class="st8" d="M177.59,79.47c0.93,0.06,1.15,0.84,2.16,0.83c0.06,1.63,1.29,3.52,0.66,5.8c0.51,0.49,0.44-0.54,0.99-0.5
		c0.35,0.15,0.32,0.93,0.99,1.16c2.27-0.82,3.1,1.2,3.65,2.65c-0.01,0.49-0.38,0.62-0.66,0.83c0.79,1.15,1.03,3.92-0.16,4.81
		c-1.92-0.57-2.99-3.06-2.49-4.64c-0.48,0.18-0.86,0.47-1.66,0.33c-0.18-1.2-0.93-1.83-1.33-2.82c-1.21,0.54-1.34,3.17-0.5,3.98
		c-0.17,0.87-0.35,1.76,0.33,2.32c0.84-0.04,0.62-1.15,1.49-1.16c0.69,0.06-0.11,0.57,0.33,0.99c0.52,0.08,0.58-0.3,1.16-0.17
		c0.02,0.3-0.2,0.35-0.16,0.66c0.52,0.08,0.37-0.51,0.99-0.33c0.46,0.7-0.41,2.11,0.5,2.49c-0.38,0.29-0.61,0.62-0.33,1.16
		c-0.94,0.26-0.99-0.16-1.49-0.66c-0.07,0.81-1.07,0.69-0.99,1.66c-0.54-0.06-0.73-0.48-1.16-0.66c-0.27-0.02-0.27,1.02,0,1
		c-0.25,0.25-0.74,0.25-0.67,0.83c-0.31-0.14-0.67-0.21-0.83-0.5c-0.25,1.73-0.65,4.53,0.17,6.14c-0.11,0.44-0.26,0.84-0.5,1.16
		c0.61,7.17,0.51,13.52,0.17,20.88c-0.1,2.07,0.26,4.19,0.17,6.3c-0.05,1.2-0.46,2.42-0.5,3.65c-0.04,1.24,0.22,1.95-0.33,2.82
		c-0.49,0.04-0.51-0.38-0.99-0.33c0.72-9.66,0.87-21.86,0.16-31.49c-1.57,1.18-2.72,0.51-4.8,1.16c0.11-0.45-0.34-0.32-0.5-0.5
		c0.72-2.65,3.54-3.2,5.47-4.64c-0.09-0.72-0.05-0.93-0.17-1.33c-0.41-0.03-0.52,0.26-0.66,0.5c-1.88-0.58-3.83,1.11-5.47,1.82
		c-0.46-0.31-0.84-0.71-1.49-0.83c0.38-1.65,1.98-3.52,3.81-2.65c0.9-0.76,1.7-1.61,2.99-1.99c-0.39-0.33-0.86-0.57-1.33-0.83
		c-0.41,0.2-0.44,0.77-0.99,0.83c-0.52-0.04-0.64-0.46-1-0.67c-0.55-0.99,1.03-2.81-0.33-3.65c-0.15-0.53,0.43-0.34,0.5-0.66
		c0.98-0.04,1.35,0.52,1.82,0.99c0.6-0.15,0.1-0.49,0.17-0.99c0.52-0.25,1.15-0.19,1.16,0.5c0.49-0.12,0.72-0.49,1.49-0.33
		c-0.14-0.68-0.03-0.57,0-1.33c-0.77,0.39-1.64,0.01-2.16-0.33c0.14,0.48-0.62,0.87-0.66,1.66c-0.5,0-0.56-0.43-0.99-0.5
		c0.41-2.42-3.25-2.47-2.98-4.48c0.26-2.01,2.91-0.74,3.98,0.33c0.75-0.61,1.09,0.05,1.49-0.5c0.62,0.32,0.83,1.05,1.33,1.49
		c-0.09-1.23,0.21-3.22,0-4.31c-0.49,0.5-0.77,1.21-1.49,1.49c-0.83-0.72-2.89-0.21-2.99-1.66c-0.52-0.08-0.47,0.42-0.66,0.66
		c-0.25-0.6-0.74,0-1.49-0.16c-0.03-0.36,0.14-0.53,0.5-0.5c-0.79-1.24,0.93-2.07,1.32-3.15c1.25,0.11,2.51-0.17,2.98,1
		C178.04,84.59,175.89,80.87,177.59,79.47z"/>
	<path class="st8" d="M155.33,88.14c0.1-0.18-0.1-1.21,0.84-1.01c0.16,1.25,1.27,1.54,2.19,2.02c-0.55,0.27-0.62,0.36-0.67,0.84
		c-0.51,0.12-0.62-0.17-1.01-0.17c0,0.45,0,0.9,0,1.34c-0.38-0.05-0.63,0.04-0.67,0.33c-0.86-0.2-1.19-0.94-2.02-1.17
		c-0.39,0.84-0.06,2.41-0.17,3.53c0.53,0.02,0.58-0.43,0.68-0.84c0.97,0.42,2.12,0.68,2.35,1.85c0.56-0.6-0.3-2.12,0.67-2.69
		c0.86,0.93,1.19,2.4,2.36,3.03c0.02,0.53-0.94,0.07-0.68,0.84c-1.24-0.2-2.36,0.44-3.03-0.17c-1.09,0.75-0.2,2.24,0.34,2.86
		c-0.34,0.84-0.73,1.62-1.35,2.19c-0.74-0.05-0.57-1-0.84-1.51c-0.85,0.24,0.38,0.92-0.17,1.35c0.34-0.04,0.58,0.67,1.51,0.5
		c0.06,0.84,0.83,0.97,1.01,1.68c0.23-0.17,0.22-0.57,0.5-0.67c0.8,0.16,1.16,0.74,1.35,1.51c0.9,0.44,2.13,1.38,1.35,2.52
		c-2.35,0.37-4.12-1.69-6.06,0c0.32,1.14-0.09,2.85,0.34,4.21c1.17-0.04,1.66-0.24,2.35,0.34c1.39-1.82,3.49,1.66,1.68,2.52
		c-1.08-0.69-2.59-0.95-3.87-1.01c-0.34,0.37-0.81,2.2-0.34,3.37c0.91,0.06,0.55-1.13,1.35-1.18c0.56-0.17,0.26,0.52,0.34,0.84
		c0.93-0.47,1.64,0.25,2.52,0.34c0.13,0.58-0.25,0.64-0.17,1.18c-0.75,0.24-0.89,0.05-1.35-0.34c-0.69,0.34-1.09,1.1-1.68,0.67
		c-1.65,1.28-0.34,4.69-1.35,6.39c0.46,0.83,0.23,1.6,0.34,2.52c0.28,0.28,0.91,0.21,1.18,0.5c0.33-0.12,0.38-0.51,0.68-0.67
		c1.32,0.32,1.97,1.75,3.2,0.84c0.17,0.73,0.85,0.94,1.52,1.18c-0.12,0.97,0.44,1.24,0.5,2.02c-0.52,0.13-0.54,0.34-0.34,0.84
		c-1.37,0.14-1.29-1.18-1.68-2.02c-0.56,0.22-1.15,0.42-1.01,1.35c-0.55-0.08-0.74-0.15-1.18,0c-0.61,1.17-0.45,3.71-2.69,3.7
		c-0.04,2.57,0.49,5.01,0.5,7.9c-0.58,0.08-0.94-0.06-1.35-0.17c-0.48-5.67-0.95-14.5-0.67-19.35c-0.04-0.24-0.5-0.06-0.5-0.34
		c-0.61,0.06-0.77,0.58-1.01,1.01c-2.03,0.18-2.12-1.58-2.35-3.2c1.26-0.6,2.82,0.54,3.37,0.67c0.14-0.7,0.81-0.87,0.67-1.85
		c-0.24-0.49-1.04-0.42-1.35-0.84c-0.5,0.12-0.73,0.5-1.51,0.34c-0.35-0.38-0.81-0.64-0.67-1.51c1.13,0,2.28-0.51,3.36-1.01
		c-0.07-0.79-0.21-1.02-0.17-2.19c-2.24-2-4.35,2.55-7.4,0.34c-0.12-0.52,0.29-0.5,0.17-1.01c2.55-0.87,4.69-2.15,7.23-3.03
		c0.26-0.24,0.15-0.86,0.17-1.35c-1.23,1.52-3.76,0.91-5.05-0.17c0.1-1.08,1.18-1.17,1.35-2.19c0.75,0.03,1.22,0.35,1.68,0.67
		c0.52-0.42-0.2-1.02,0-1.68c-0.63,0.21-0.85,0.83-1.85,0.67c-0.43-0.38-0.44-0.55-0.5-1.01c-0.88,0.24-1.5,0.74-1.51,1.85
		c-0.13-0.09-0.27-0.18-0.5-0.17c0.01,0.27-0.08,0.64,0.17,0.67c-1.01,1.08-2.02,0.78-3.2,1.51c-2.07-0.11-4.24-1.87-2.69-4.04
		c0.75-0.19,0.81,0,1.85,0c0.3-0.62-0.24-1.42,0.17-2.52c0.94,0.18,1.38,0.87,2.02,1.35c2.47-0.6,5.45-4.48,8.07-1.85
		c0.45-1.92,0.32-3.2-0.17-4.88c-0.53,0.26-0.46,0.34-1.18,0.17c0.08-0.75-0.09-1.26-0.17-1.85c-0.41,0.26-0.63,0.71-0.67,1.35
		c-0.64-0.37-0.53,0.15-0.84,0.5c-0.77-0.04-0.63-0.36-0.51-1.01c-0.99,1.21-2.76,2.81-4.88,1.85c-0.18-0.67-0.86-1.14-0.51-1.85
		c0.96,0.03,1.48-0.42,2.02-1.18c2.06,0.53,2.44-0.56,3.7-1.18c0.45-0.05,0.55,0.23,0.51,0.67c1.01-0.28,1.63-1.99,2.69-1.18
		c-0.24-0.74,0.05-2.47-0.17-3.53c-0.42,0.14-0.23,0.89-0.5,1.18c-1.86-0.85-2.36,2.86-4.04,1.18c0.54-0.56,0.04-1.17,0.17-2.19
		c0.22-0.17,0.62-0.17,0.84-0.34c0.13-0.58-0.69-0.21-0.5-0.84c0.61-0.56,1.59-0.76,2.52-1.01c-1.47-1.02-2.88-3.86-1.01-5.38
		c1.23,0.17,1.64,1.16,1.85,2.35c0.56-0.05,1.03-0.03,1.18,0.34c-0.12,0.53-0.45,0.22-0.84,0.17c0.54,1.08,1.04,2.21,1.68,3.2
		c0.37-0.25,0.39-0.84,1.01-0.84C154.82,87.65,155.18,87.79,155.33,88.14z M152.3,105.64c0.04-0.13,0.14-0.19,0.34-0.16
		c-0.15-0.84,0.24-1.56-0.34-1.68C152.4,104.47,151.54,105.33,152.3,105.64z"/>
	<path class="st8" d="M130.22,108.44c-2.18-0.12-5.47,1.88-2.39,3.08c-0.12,0.18-0.67,0.79-0.17,1.02
		c-1.14,0.62-4.28,1.14-5.47,0.34c-0.44,0.23-0.23,1.15-0.17,1.71c0.66-0.23,0.98-0.46,1.37,0.17c0.6-0.03,0.76-0.49,1.37-0.52
		c1.89,0.16,2,2.11,3.93,2.22c1.05,0.8,1.95,2.15,0.68,3.08c-0.24-0.32-0.53-0.61-0.85-0.85c-0.36,0.51-0.72,0.65-1.19,0.68
		c-0.47-1.26-3.52-1.83-3.25-0.17c0.04,0.36,0.75,0.05,0.86,0.34c-0.23,0.35-0.56,0.58-1.03,0.69c0.08,1.05,0.95,1.33,1.88,1.54
		c0.4,0.79,0.83,1.57,1.71,1.88c-0.82,0.46,0.08,0.69-0.34,1.54c-0.48-0.46-0.84,0.16-1.36,0.17c-0.22-0.29-0.68-0.34-0.86-0.69
		c-0.67,0.13-0.47,1.13-1.37,1.03c-0.76-0.32-1.25-0.91-1.88-1.37c-0.39,0.35,0.05,1.53-0.34,1.88c0.77,0.66,1.76,1.1,3.25,1.03
		c0,0.34-0.47,0.22-0.34,0.68c1.5,0.43,2.14,1.03,4.1,1.2c0.42,0.71-0.67,2.13-0.51,2.56c-0.69,0.44-1.61-0.41-2.39,0.34
		c-1.08-0.73-2.51-0.3-4.1,0.17c0.41,3.76,0.14,9.16,0.52,14.19c0.22,3.03,0.84,6.69,0.17,8.72c0.12-0.37-0.88,0.2-0.51,0.68
		c-1.39,0.11-1.03-2.38-1.03-3.59c0.01-4.53-0.33-10.27-0.51-15.22c-0.96-0.37-2.28,0.38-3.08-0.51c-0.7,0.59-1.75,0.86-2.57,0.51
		c-0.47,0.55-1.05,1-1.54,1.54c-1.08-0.57-1.38,0.67-2.73,0.34c-2.03-2.83,3.09-5.2,5.3-4.45c0.91-0.54,2.55-0.99,3.42-0.17
		c0.01,0.51-0.5,0.87-0.17,1.2c0.62,0.16,0.24-0.68,0.34-1.03c0.34,0,0.68,0,1.02,0c0.04-1.94-0.11-3.07,0-4.79
		c-1.44,0.61-2.44,1.66-3.93,2.22c-0.86-0.99-3.44-0.89-2.74-2.9c1.66-0.73,3.33-2.09,5.3-0.68c0.51,0,0.22-0.8,0.51-1.02
		c0.46,0.18,0.8,0.11,1.03-0.34c-0.72-0.09-2.06-0.71-2.56,0.34c-0.95-0.3-0.77-1.74-1.2-2.57c-2.88,1.02-4.43-1-5.3-3.07
		c2.15-1.05,4.29,0.01,6.67-0.86c0.14,0.32,0.22,0.69,0.51,0.86c0.23-0.09,1.41-0.65,1.88,0.17c0.73-0.97,0.19-2.18,0.68-3.42
		c-1.01-0.42-2.42,1.86-3.59,0.34c0.12-0.4,0.57-0.46,0.68-0.85c-0.9,0.05-1.66-1.09-2.22-0.34c-0.77-0.41-0.6-0.78-0.68-1.71
		c0.66-0.37,1.25-0.91,0.85-1.88c0.75-0.45,1.53-0.27,2.05,0.34c0.87-0.21,1.83-0.83,2.74-0.17c0.16-1.42-1.08-1.42-1.19-2.57
		c-0.94,0.28-1.79,1.41-2.74,0.68c-1.57,0.97-3.51-1-3.59-2.05c-0.19-2.42,3.72-2.71,5.47-1.37c0.14,0.59-0.32,0.72,0,1.03
		c0.34-0.69,0.98-1.07,1.71-1.37c0.08-0.59-0.07-0.96-0.17-1.37c0.14-0.15,0.47-0.1,0.51-0.34c0.59,0.03,1.11,0.14,1.03,0.86
		c1.18-1.55,3.9-1.57,5.98-2.22C128.7,106.43,129.54,106.86,130.22,108.44z M122.53,108.95c0.23,0,0.46,0,0.68,0
		c0-0.23,0-0.46,0-0.68C122.78,108.29,122.55,108.51,122.53,108.95z M122.19,110.66c1.09-0.21,2.11,0.32,2.39-0.85
		C123.94,110.24,122.72,110.11,122.19,110.66z M120.82,115.78c-0.01-0.62,0.1-1.35-0.34-1.54
		C120.24,114.77,120.32,115.54,120.82,115.78z M122.7,117.67c0.55,0.15,0.53-0.27,0.86-0.34c-0.21-0.42-0.14-1.11-0.69-1.2
		C122.58,116.41,122.73,117.13,122.7,117.67z M122.02,120.06c0.45-0.29,0.67-0.81,0.85-1.37c-0.34,0-0.68,0-1.02,0
		C121.74,119.07,121.42,119.97,122.02,120.06z M121.67,123.99c0.82-0.32,1.26-0.71,2.05-0.51c-0.52-0.79-0.79-1.83-1.88-2.05
		C121.55,122.4,121.82,123.1,121.67,123.99z M115.69,123.48c0.85,0.16,1.76-0.51,1.2-1.2C116.51,122.7,116.01,123,115.69,123.48z
		 M119.28,125.36c0.88,0.07,1.04-1.56,0.51-1.88C119.61,124.09,119.36,124.64,119.28,125.36z"/>
	<path class="st8" d="M202.85,133.65c-0.71,0.59-0.75-0.63-1.52-0.51c-0.55,0.96-1.55,1.34-2.03,2.71c-0.15-0.1-0.3-0.21-0.34,0
		c-1.53-1.22-3.66-1.28-3.39-4.74c1.78-0.2,2.68-1.27,4.23-1.69c0.07-0.56,0.59-1.35,1.53-1.52c-0.18,0.97,0.62,0.36,0.51,1.52
		c0.32,0.24,0.73,0.39,1.18,0.51c0.76-1.15,0.13-4.15,0.5-5.76c-0.17-0.39-1.13,0.01-1.01-0.68c-1.02,0.56-1.61,1.56-3.22,1.53
		c-0.86,0.81-2.82,2.02-4.06,1.35c0.26-1.15,0.7-2.12,2.03-2.2c-0.24-2.53,1.96-4.27,4.58-3.89c0.17-0.5,0.5-0.85,1.35-0.68
		c0.29,0.27,0.06,1.06,0.68,1.01c0.38-0.17-0.22-0.78,0-1.35c-0.91-0.72-2.54-1.45-3.9-1.18c-0.53-1.09-1.76-1.85-1.52-3.22
		c1.74-0.88,3.09,0.16,3.89,1.18c0.78-0.08,1.1-0.56,1.7,0c0.53-0.31,0.39-1.3,0.51-2.03c-0.68-0.57-1.59-0.47-2.71-0.17
		c-0.95-1.03-0.65-3.49-0.17-4.91c1.12,0.41,1.99,0.03,3.22,0.34c0.87-1.15-0.69-1.03-0.34-2.54c-0.71-0.3-1.08,1.02-2.37,0.68
		c-1.85-2.6,5.82-9.76,4.57-2.2c0.04,0.53,0.84,0.29,1.36,0.34c0.19,0.93,0.77,1.48,0.68,2.71c2.25,0.31,1.76,2.99,3.05,3.89
		c-0.35,1.4-1.28,2.15-2.71,2.03c-0.16-0.34-0.35-0.67-0.51-1.01c-0.43,0.02-0.34,0.57-0.34,1.01c-0.77-0.13-1.2-0.61-1.69-1.01
		c-1.11,0.83-0.81,1.75-1.01,3.39c1.9-0.64,2.44,1.21,3.9,1.53c-0.07-0.5-0.23-2.37-1.53-2.21c-0.18-0.63,0.64-0.27,0.51-0.85
		c2.07,0.58,1.54,3.77,3.55,4.4c-0.12,2.08-1.1,3.31-3.05,3.56c-0.32-0.98-1.76-0.84-1.52-2.37c-0.7,0.43-0.97,0.53-2.03,0.34
		c-0.44,0.5,0.11,0.94-0.17,1.53c0.63,0.07,0.31-0.82,0.85-0.85c1.48,0.16,2.4,0.87,2.54,2.37c1.03,0.13,2.88,0.98,3.9-0.17
		c0.73,0.22,1.01,0.91,1.35,1.53c-0.17,0.85-0.61,1.42-0.51,2.54c-0.25,0.2-0.69,0.21-0.85,0.51c-0.33-0.46-1.17-0.41-1.35-1.02
		c-0.74,0.28-1.77,0.89-2.54,0.17c0.05-0.7-0.22-0.66,0-1.19c-0.96,0-2.91,0.49-3.89-0.34c0.24,1.51-0.43,3.63,0.17,4.4
		c0.28-0.12,1.92-0.73,2.03,0.51c2.65-0.06,4.53,1.98,4.91,4.74c-1.16,0.5-1.49,0.04-2.54,0.85c-1.45-0.86-3.2-0.91-4.23,0.34
		c-0.5-0.06-0.86-0.27-1.18-0.51c-0.32,1.92-0.27,3.82,0,5.76c-0.47,0.01-0.77,0.52-1.53,0.17c-0.1-1.89-0.42-4.32,0.17-5.93
		c-0.46-0.5-1.25,0.1-1.86,0c-0.15-0.3-0.48-0.43-0.34-1.01c0.71,0.14,0.8-0.33,1.36-0.34c0.22-0.43-0.67-0.53-0.17-0.68
		c0.69-0.23,0.54,0.37,1.02,0.34C202.96,134.31,202.6,133.95,202.85,133.65z M203.36,122.81c0.52,0.26,0.52-1.11,0-0.85
		C203.36,122.24,203.36,122.53,203.36,122.81z M208.27,132.97c0.02-0.32,0.56-0.12,0.51-0.51c-0.32-0.07-0.42-0.36-0.85-0.34
		C208.19,132.62,207.74,132.75,208.27,132.97z M207.43,134.67c-0.34-0.17-0.59-0.43-0.85-0.68
		C206.18,134.25,207.01,135.25,207.43,134.67z"/>
	<path class="st8" d="M235.88,114.85c1.75,1.78,1.71,4.19,1.07,6.98c2.09,1.19,4.27,2.29,6.98,2.87c-0.26,0.28-0.72,0.35-0.54,1.07
		c-0.79,0.01-1.48-0.07-1.97-0.36c-0.46,0.02-0.19,0.77-0.89,0.54c0.18,0.3,0.76,0.19,1.07,0.36c-0.37,0.14-0.9,0.89-0.18,1.07
		c-1.74,0.33-3.47-1.62-4.65-1.43c0.27,0.89,0.39,2.54-0.18,4.12c0.97,0.14,1.14-0.53,1.79-0.72c1.37,0.63,3.45,0.28,5.73,0.72
		c0.12,0.62-0.27,0.84,0.36,1.43c-2.58,0.75-5.53,3.62-8.42,2.33c-0.05,1.06,0.06,3.09-0.18,4.47c0.95-0.04,2.23-1.21,3.58-1.43
		c-0.15,1.16,0.84,1.19,0.72,2.33c1.01,0.24,2.01,0.5,3.04,0.72c-0.27,0.67-0.41,0.66,0,1.25c-0.95,0.99-3.57,0.5-4.47-0.18
		c-0.65,0.13-0.96,0.59-1.61,0.71c-0.77,0.17-0.31-0.88-0.89-0.9c-0.6,0.99-0.25,2.11-0.18,3.4c0.7-0.33-0.06-1.04,0.36-1.43
		c1.16-0.42,1.99,0.08,2.69,0.18c0.61-1.57,2.24-0.32,3.76-0.36c0.17,0.31,0.06,0.89,0.36,1.07c-0.84,0.53-2.04,0.7-2.15,1.97
		c-0.8,0.34-1.76,0.48-2.33-0.18c-1.13,0.18-1.29,1.34-2.5,1.43c0,0.54,0,1.08,0,1.61c0.91,0.46,1.53-1.06,2.15-0.9
		c0.39-0.03,0.08,0.64,0.18,0.9c1.6,0.35,2.82-0.31,5.19-0.36c-0.03,0.44-0.03,0.87,0.36,0.9c-1.36,1.03-2.31,1.57-1.43,3.76
		c-0.37-0.2-0.85,0.28-0.36,0.36c-1.12-0.14-3.71-0.34-5.01-0.89c-0.1-0.85-0.67-1.25-1.26-1.61c-0.02,1.96-0.27,2.92-0.18,5.19
		c1.73-3.17,3.92,0.59,6.8-0.18c-0.15,0.91,0.62,0.91,1.07,1.61c0.01,0.72-0.36,1.07-0.72,1.43c-0.96-0.73-1.96-0.32-3.04-0.89
		c-1.19,1.75-2.49-0.26-3.76-0.54c-0.6,0.44,0.08,1.18-0.72,1.79c-0.54-0.24-1.26-0.29-1.07-1.25c-2.13,0.63-3.74,1.22-5.73,0.71
		c0.77-2.39,2.41-3.91,5.55-3.94c0.63-1.3-0.1-2.85,0.54-4.12c-1.03-0.52-2.76,0.66-3.58,0.36c-1.13,0.92-2.33,2.99-3.22,3.04
		c-0.54,0.07-0.37-0.58-0.54-0.89c-2.1-0.31-3.41,1.93-4.66,0.36c0.36-2.21,1.68-3.45,3.22-4.48c0.63,0.32,1.18,0.72,1.97,0.89
		c0.15-0.03,0.18-0.18,0.36-0.18c0.28-2.44,3.36-4.11,5.19-1.97c0,0.3,0,0.6,0,0.9c0.75-0.08,0.82-0.85,1.43-1.08
		c-0.94-1.82,0.5-5.8-1.43-7.34c-1.3,1.56-3.29,2.44-4.83,3.76c-0.41-0.13-0.54-0.54-0.72-0.89c-0.75,0.15-1.44,0.35-2.33,0.36
		c0-0.6-0.58-0.61-0.54-1.25c1.95-0.97,2.86-2.98,5.19-3.58c0.78-0.83,1.03-2.19,2.69-2.15c0.45,0.38,0.21,1.46,1.25,1.26
		c0.67-1.15-0.04-2.63,0.54-3.94c-0.8-0.35-1.61-0.48-1.97-1.61c-0.83,0.9-2.03,0.35-3.22,0.54c-0.95,0.15-2.82,1.07-3.04-0.54
		c-0.29-2.07,3.19-1.53,4.84-1.79c0.03-0.22-0.67-1.23-0.72-1.97c0.43-0.71,1.38-0.16,1.61,0.36c0.54,0.01,0.17-0.9,0.72-0.9
		c1.13-0.23,1.15,0.64,1.61,1.07c0.1,0.7-0.15,1.04-0.36,1.43c0.24,0,0.48,0,0.71,0c0.86-0.93,0.4-2.56,0.72-3.94
		c-0.48-1.13-1.67-1.55-2.51-2.33c-1.33,0.94-3.01,1.53-4.65,2.15c-1.29-0.51-0.85-1.98-0.54-3.22c0.96,0.01,0.82-1.09,1.61-1.25
		c0.56-0.03,1.08,0,1.25,0.36c0.62-0.63,1.47-1.03,2.69-1.07c0.84-0.77,0.51-2.71,2.15-2.69c0.12-1.1-0.62-2.03-1.43-2.69
		C234.61,115.14,235,114.75,235.88,114.85z M240,131.14c0.51,0.04,0.98,0.02,0.89-0.54C240.48,130.67,240.12,130.79,240,131.14z
		 M240.89,151.73c0.3,0,0.6,0,0.9,0c0.03-0.45-0.28-0.56-0.54-0.71C241.25,151.37,240.76,151.24,240.89,151.73z"/>
	<path class="st9" d="M174.64,142.5c-4.09,0.32-16.7,0.61-30.76,5.54s-17.29,8.01-15.23,12.02c2.05,4-3.51,6.16-5.86,7.08
		c-2.34,0.92-10.55,7.09-4.1,14.79c6.44,7.7,13.48,8.32,24.61,3.39s18.75-8.93,36.62-3.08s21.09,10.78,33.98,7.7
		s6.15-9.86,4.69-12.01c-1.47-2.15-5.86-8.01,4.69-10.17s10.11-8.44,1.03-13.99C215.22,148.24,190.46,141.27,174.64,142.5z"/>
</g>
<g>
	<path class="st1" d="M186.76,134.7c-0.11,0.13-0.15,0.24-0.14,0.36c0.06,0.52-0.59,1.06-1.93,1.63c0.35,0.13,0.81,0.26,1.18,0.26
		c0.46,0,0.55-0.18,0.55-0.47v-0.12l0.1-0.08c0.15-0.12,0.43-0.17,0.84-0.17c0.76,0,2.08,0.22,2.53,0.58l0.02,0.01v-2.96h-0.15
		C188.88,133.74,187.27,134.12,186.76,134.7z"/>
	<g>
		<path class="st1" d="M189.52,153.41c-0.74,0-1.34,0.13-1.34,0.28c0,0.16,0.6,0.28,1.34,0.28c0.12,0,0.24,0,0.36-0.01v-0.54
			C189.76,153.41,189.64,153.41,189.52,153.41z"/>
		<path class="st1" d="M190.85,153.69c0-0.08-0.17-0.15-0.44-0.21v0.42C190.68,153.85,190.85,153.77,190.85,153.69z"/>
	</g>
	<path class="st0" d="M189.91,132.85v0.41c-1.01,0.05-2.92,0.44-3.52,1.12c-0.2,0.23-0.3,0.49-0.26,0.75
		c0.02,0.19-0.55,0.72-2.18,1.33l-0.54,0.2l0.52,0.26c0.05,0.02,1.12,0.55,1.95,0.55c0.61,0,0.98-0.29,1.04-0.8
		c0.08-0.02,0.22-0.04,0.45-0.04c0.73,0,2.13,0.35,2.51,0.56v16.24v0.54c0.2-0.01,0.39-0.04,0.54-0.06v-0.42v-20.63L189.91,132.85
		L189.91,132.85z M187.36,136.12c-0.41,0-0.69,0.06-0.84,0.17l-0.1,0.08v0.12c0,0.29-0.09,0.47-0.55,0.47
		c-0.37,0-0.83-0.13-1.18-0.26c1.35-0.57,2-1.12,1.93-1.63c-0.01-0.12,0.03-0.24,0.14-0.36c0.51-0.58,2.12-0.95,3-0.95h0.15v2.96
		l-0.02-0.01C189.45,136.34,188.12,136.12,187.36,136.12z"/>
</g>
<g>
	<g>
		<path class="st0" d="M174.63,164.71l0.07-0.42l-0.28-2.18l-0.14-1.48l-0.07-0.91l-0.14-0.63l-0.21-0.42l0.35-0.14l0.14-0.36
			l-0.07-0.49l-0.21-0.35L174,156.7l-0.21-0.7l-0.07-0.42l-0.14-0.42l-0.21-0.56l-0.35-0.28l-0.28-0.28l-0.28-0.42l-0.14-0.28
			l-0.14-0.42l0.14-0.35l-0.21-0.42l-0.21-0.42l-0.28-0.35l-0.42-0.29l-0.42-0.07h-0.42l-0.42,0.35l-0.42,0.63l-0.28,0.56l0.07,0.49
			l0.28,0.35h0.42l0.28,0.07l0.07,0.42l0.49,0.35l0.21,0.28v0.28l-0.21,0.28l-0.21,0.56c0,0,0,0.35,0,0.56c0,0.21-0.07,0.7-0.07,0.7
			v0.42l0.14,0.35l-0.28,0.56l-0.35,0.49l-0.14,0.35l-0.35,0.42l-0.14,0.49v0.49l0.14,0.42l-3.07,7.32l-0.06,0.15l-0.39-0.01h-0.84
			v0.21v0.19h0.32c-0.02,0.05-0.04,0.1-0.04,0.16c0,0.2,0.16,0.35,0.35,0.35s0.35-0.16,0.35-0.35c0-0.05-0.02-0.11-0.04-0.16h0.18
			h0.35l0.08-0.36l-0.09-0.04l3.25-7.53l0.42-0.28l0.28-0.21l0.21-0.28l0.28-0.28v0.56l0.07,1.06l0.07,0.92l0.07,0.91l0.07,0.7v0.78
			l0.21,0.35h0.56v0.56l0.07,0.56v0.49l-0.07,0.42l-0.21,0.42h-0.28h-0.56l-0.21,0.35l-0.28,0.35h-0.42l0.07,0.49l1.27,0.21
			l2.32-0.07l0.49-0.07l0.14-0.49l-0.28-0.63v-0.35l-0.28-0.14l-0.21-0.84l0.07-0.56l-0.07-0.42l-0.14-0.49h0.56L174.63,164.71z"/>
	</g>
	<g>
		<path class="st0" d="M150.01,162.16l0.07,0.42c0,0,0.09,0.42,0.08,0.6c-0.01,0.21-0.13,0.75-0.13,0.75l0.82-0.22l0.49,0.14h0.28
			l0.35,0.42c0,0.42,0,0.84,0,0.84l-0.07,0.49v0.56v0.49v0.49c0,0,0,0.21,0,0.42c0,0.21,0,0.14,0,0.49c0,0.36,0,0.56,0,0.77
			s0,0.49,0,0.49s0.07,0.07,0.07,0.35s-0.07,0.56-0.07,0.56v0.49l0.07,0.42l-0.07,0.28l-0.35,0.56c0,0.42,0,0.42,0,0.42v0.71
			l0.49,0.14h0.56l0.77-0.07l0.42-0.07l0.07,0.49l0.42,0.21c0,0,1.41,0,1.62,0c0.21,0,2.6-0.14,2.6-0.14l0.21-0.42l0.14-0.35
			l-0.28-0.35l-0.56,0.07l-0.56-0.07l-0.28-0.21l-0.42-0.28c0,0-0.14-0.28-0.35-0.35s-0.21-0.07-0.21-0.07l-0.28-0.28l-0.07-0.28
			l-0.07-0.35v-0.42c0,0,0-0.07,0-0.28c0-0.02,0-0.03,0-0.05s0-0.03,0-0.03c0-0.02,0-0.06,0-0.14c0-0.35,0-0.35,0-0.35l0.21-0.63
			l0.21-0.99l0.21-0.42c0,0,0.07-0.28,0.07-0.49c0-0.2,0-0.53,0-0.56l0,0c0-0.02,0-0.08,0-0.28c0-0.35,0-0.7,0-0.7l0.07-0.35v-0.49
			l-0.07-0.84l-0.21-0.7v-0.7v-0.28v-0.56l-0.21-0.42l-0.14-0.49l-0.21-0.35l-0.21-0.42l-0.14-0.35c0,0-0.14-0.07-0.14-0.42
			c0-0.35,0-0.35,0-0.35s-0.14-0.21,0.07-0.28c0.21-0.07,0.49-0.07,0.49-0.07l0.42-0.14c0,0,0,0.14,0.28,0s0.28-0.14,0.28-0.14
			s0.07-0.21,0.21-0.42c0.14-0.21,0.14-0.21,0.14-0.21h0.35v0.42l0.07,0.28l0.14,0.35c0,0,0.07,0.14,0.14,0.35
			c0.07,0.21,0.21,0.56,0.21,0.56s0,0.07,0.07,0.35s0.07,0.42,0.21,0.63s0.28,0.56,0.28,0.56l0.14,0.42l0.07,0.42l-0.42,0.5
			l0.35,0.56l0.14,0.42l0.35,0.35l0.42,0.43l0.35,0.07l4.71,6.12l0.21,0.35l-0.36,1.23l0.51,0.17l0.23-0.77l0.21-0.59l-0.33-0.46
			l-4.91-6.54v-0.49v-0.42l-0.21-0.49l-0.21-0.56l-0.21-0.63l-0.14-0.63c0,0-0.21-0.35-0.21-0.56c0-0.21,0-0.42,0-0.63
			s0-0.35,0-0.56c0-0.21,0.07,0.14,0-0.21s-0.07-0.35-0.07-0.35v-0.49c0,0,0.35-0.35,0.49-0.56c0.14-0.21,0.28-0.77,0.28-0.77
			l0.14-0.63l0.21-0.35l0.14-0.35l0.28,0.21l0.35-0.28l0.14,0.28l0.49,0.21h0.35l0.42-0.21l-0.07-0.42l-0.07-0.49l0.07-0.63v-0.42
			l0.14-0.28l0.07-0.49l-0.07-0.35l-0.49-0.35l-0.42-0.42l-0.42-0.28l-0.42-0.14h-0.42l-0.35,0.14l-0.35,0.42l-0.49,0.07l-0.56-0.21
			l-0.49-0.07l-0.42-0.07l-0.42-0.07h-0.49l-0.42,0.07l-0.49,0.21c0,0-0.21,0.07-0.42,0.21c-0.21,0.14-0.49,0.14-0.49,0.14
			l-0.63,0.42l-0.21,0.28l-0.49,0.35l-0.35,0.28l-0.35,0.35l-0.28,0.21l-0.42,0.28l-0.49,0.56l-0.22,0.33l0.01-0.04
			c0,0-0.18,0.39-0.32,0.74c-0.14,0.35-0.35,0.69-0.42,1.11c-0.07,0.42-0.49,0.97-0.56,1.46c-0.07,0.49-0.28,1.59-0.28,1.59
			s-0.07,0.83-0.07,1.11C149.92,160.92,150.01,162.16,150.01,162.16z M154.44,170.39v0.49l-0.14,0.42l-0.35-0.35l-0.21-0.42
			l-0.35-0.57v-0.56v-0.56c0,0,0.14-0.21,0.14-0.42c0-0.21,0-0.78,0-0.78l0.07-0.42c0,0,0-0.42,0-0.63s0.14-0.56,0.14-0.56
			l0.21-0.78l0.07-0.85l0.28,0.42l0.07,0.49v0.56c0,0,0,0.07,0,0.35s0,0.63,0,0.63s0,0.49,0,0.7c0,0.19,0,0.73,0,0.82
			c0,0.01,0,0.02,0,0.02c0,0.03,0,0.12,0,0.35c0,0.49,0.07,0.92,0.07,0.92L154.44,170.39L154.44,170.39z"/>
	</g>
	<path class="st0" d="M154.56,166.5h-1.28l-1.56-8.75l0.03-0.23l0.23-0.39l-0.16-0.39l-0.39-0.31l-0.23-0.55
		c0,0-0.39-0.63-0.39-0.86s-0.31-0.78-0.47-1.01s-0.47-0.86-0.47-0.86l-0.39-0.55v-0.47c0,0,0.23-0.08,0.16-0.55
		c-0.08-0.47-0.23-1.02-0.23-1.02l-0.08-0.62l-0.23-0.31l-0.39-0.55c0,0,0.31,0.31,0.55,0.23s0.39-0.47,0.39-0.47l0.47-0.24
		l0.08-0.7c0,0,0.31,0.15,0.71,0.15c0.39,0,0.94-0.08,0.54-0.39c-0.39-0.31-0.7-0.7-0.7-0.7l-0.15-0.78l-0.7-0.55l-0.47-0.39h-0.55
		l-0.7,0.16l-0.23,0.39h-0.55l-0.47,0.16c0,0-0.08,0.31-0.08,0.7s0.16,0.78,0.16,0.78l0.16,0.47c0,0,0.31,0,0.39-0.31
		s0.16-0.7,0.16-0.7l-0.08,0.39l0.23,0.47l-0.31,0.47l-0.23,0.31c0,0-0.86,0.55-0.94,0.78s-0.39,0.86-0.39,1.25s0,1.64,0.08,2.58
		c0.08,0.93-0.16,1.64-0.24,2.26c-0.08,0.63-0.23,1.48-0.16,2.11c0.08,0.63-0.08,1.41-0.08,1.64s-0.08,0.94-0.08,0.94
		s0.39,1.01,1.17,0.94c0,0-0.08,0.63-0.08,0.86s-0.16,0.78-0.31,1.48c-0.16,0.7-0.23,1.72-0.16,2.26c0.08,0.55,0.08,1.95,0.08,1.95
		s-0.31,0.31-0.31,0.7s0.08,0.55,0.39,0.7c0.31,0.16,0.63,0.16,0.94,0.31s0.7,0.62,1.25,0.55c0.55-0.08,0.86-0.31,0.94-0.55
		c0.08-0.23-0.16-0.39-0.39-0.55s-0.94-0.63-0.94-0.63l-0.31-0.55l-0.39-0.31v-0.31c0,0,0.31-0.08,0.78,0s0.55,0.15,0.94,0.15
		s0.86-0.15,0.86-0.15s0.62-0.47-0.08-0.55s-1.09-0.47-1.09-0.47l-0.55-0.47c0,0-0.23-1.01-0.23-1.25c0-0.23,0.23-0.86,0.23-1.25
		s0.08-0.94,0.15-1.25c0.08-0.31,0.16-1.01,0.16-1.01s0.47-0.55,0.7-0.7c0,0,0-2.42,0-2.73s-0.08-1.02-0.08-1.02v-0.78
		c0,0,0.47,0.55,0.78,0.86s0.62,0.16,0.62,0.47s0,0.94,0.23,1.01c0.23,0.08,0.39,0.16,0.62,0.23l1.57,8.41
		c-0.24,0.16-0.12,0.78,0.44,0.82C155.04,167.41,154.56,166.5,154.56,166.5z"/>
</g>
<g>
	<path class="st10" d="M271.11,85.36c-5.7-1.4-22.21-5.44-27.51-6.46c-6.44-1.24-10.41-3.47-17.1-1.98
		c-4.09,2.44-11.97,1.24-16.36,0.25c-8.88-1.95-38.19-5.24-42.87-4.63c-9.38,1.22-11.82,4.89-19.78,3.68
		c-8.03-1.23-42.79-0.62-58.31,4.51c-1.6,0.92-3.2,1.86-4.77,2.83c-3.72,2.29-7.38,4.72-10.96,7.3c-0.02,0.02-0.05,0.04-0.07,0.05
		c-0.32,0.23-0.63,0.46-0.94,0.69c-2.58,1.89-5.11,3.85-7.61,5.88c-2.25,1.84-4.46,3.75-6.65,5.7c-3.98,3.56-7.86,7.29-11.6,11.24
		l129.74,138.95l129.74-138.93c-0.32-0.34-0.66-0.67-0.98-1.01C294.68,102.57,283.27,93.19,271.11,85.36z"/>
	<path class="st10" d="M146.21,66.24c4.43,1.58,6.39-3.68,11.84-4.09c6.8-0.58,38.5,8.57,42.68,7.58
		c10.16-0.25,18.13,6.03,21.18,3.4c2.74-3.42,10.69-2.69,13.77-0.92c3.31,1.22,15.58,4.04,22.56,5.6
		c-25.15-13.36-53.02-20.43-81.91-20.43c-18.5,0-36.59,2.91-53.81,8.51C133.28,64.95,143.08,64.59,146.21,66.24z"/>
	<path class="st10" d="M16.34,82.06l28.56,30.59c3.73-3.94,7.61-7.67,11.59-11.23c2.19-1.96,4.4-3.87,6.65-5.72
		c3.07-2.5,6.19-4.91,9.37-7.19c2.37-1.7,4.77-3.33,7.2-4.9c7.81-5.06,15.94-9.48,24.32-13.24c22.59-10.12,47.05-15.44,72.29-15.44
		c49.57,0,96.18,20.5,131.41,57.73l28.57-30.59c-43.29-44.22-100.06-68.56-159.99-68.56C116.39,13.5,59.63,37.84,16.34,82.06z"/>
	<path class="st11" d="M147.5,76.22c7.95,1.22,10.4-2.45,19.78-3.68c4.68-0.61,33.99,2.68,42.87,4.63
		c4.39,0.99,12.27,2.19,16.36-0.25c6.69-1.49,10.66,0.74,17.1,1.98c5.3,1.02,21.8,5.06,27.51,6.46c-4.2-2.7-8.49-5.23-12.87-7.56
		c-6.98-1.56-19.25-4.38-22.56-5.6c-3.08-1.77-11.02-2.5-13.77,0.92c-3.05,2.63-11.02-3.65-21.18-3.4
		c-4.17,0.99-35.88-8.16-42.68-7.58c-5.45,0.42-7.41,5.68-11.84,4.09c-3.12-1.65-12.93-1.3-23.69-0.36
		c-3.31,1.07-6.59,2.24-9.83,3.51c-8.08,3.17-15.92,6.96-23.51,11.33C104.71,75.6,139.46,74.99,147.5,76.22z"/>
	<path class="st1" d="M338.89,81.19C295.04,35.96,237.3,11.05,176.33,11.05c-60.98,0-118.71,24.91-162.57,70.14l-0.81,0.84
		l163.38,174.94L339.7,82.03L338.89,81.19z M176.33,253.37L46.58,114.42c3.73-3.95,7.61-7.68,11.6-11.24
		c2.18-1.95,4.39-3.87,6.65-5.7c2.5-2.03,5.03-3.99,7.61-5.88c0.31-0.23,0.63-0.46,0.94-0.69c0.02-0.01,0.05-0.03,0.07-0.05
		c3.58-2.58,7.24-5,10.96-7.3c1.58-0.97,3.17-1.91,4.77-2.83c7.59-4.37,15.43-8.16,23.51-11.33c3.24-1.27,6.52-2.43,9.83-3.51
		c17.22-5.59,35.3-8.51,53.81-8.51c28.89,0,56.76,7.07,81.91,20.43c4.38,2.33,8.67,4.85,12.87,7.56
		c12.17,7.83,23.57,17.21,33.98,28.06c0.33,0.34,0.66,0.67,0.98,1.01L176.33,253.37z M307.74,112.66
		c-35.23-37.23-81.85-57.73-131.41-57.73c-25.24,0-49.7,5.32-72.29,15.44c-8.38,3.76-16.51,8.18-24.32,13.24
		c-2.43,1.57-4.83,3.21-7.2,4.9c-3.19,2.28-6.31,4.69-9.37,7.19c-2.26,1.84-4.47,3.76-6.65,5.72c-3.98,3.56-7.85,7.29-11.59,11.23
		L16.35,82.07c43.29-44.22,100.06-68.56,159.99-68.56s116.7,24.34,159.99,68.56L307.74,112.66z"/>
</g>
</svg>
